{"asset":{"version":"2.0","generator":"Priyanshu OS Avatar Builder"},"extensionsUsed":["KHR_materials_unlit"],"scene":0,"scenes":[{"nodes":[0]}],"nodes":[{"mesh":0,"name":"PriyanshuAvatar"}],"meshes":[{"name":"PriyanshuAvatarMesh","primitives":[{"attributes":{"POSITION":0,"NORMAL":1,"TEXCOORD_0":2},"indices":3,"material":0},{"attributes":{"POSITION":4,"NORMAL":5},"indices":6,"material":1}]}],"materials":[{"name":"AvatarFront","pbrMetallicRoughness":{"baseColorFactor":[1,1,1,1],"baseColorTexture":{"index":0},"metallicFactor":0.0,"roughnessFactor":1.0},"alphaMode":"MASK","alphaCutoff":0.08,"doubleSided":false,"extensions":{"KHR_materials_unlit":{}}},{"name":"AvatarDepth","pbrMetallicRoughness":{"baseColorFactor":[0.08,0.085,0.095,1],"metallicFactor":0.0,"roughnessFactor":0.72}}],"textures":[{"sampler":0,"source":0}],"samplers":[{"magFilter":9729,"minFilter":9987,"wrapS":33071,"wrapT":33071}],"images":[{"uri":"priyanshu-pose-atlas.webp","mimeType":"image/webp"}],"buffers":[{"uri":"data:application/octet-stream;base64,","byteLength":1954}],"bufferViews":[{"buffer":0,"byteOffset":0,"byteLength":228,"target":34962},{"buffer":0,"byteOffset":228,"byteLength":228,"target":34962},{"buffer":0,"byteOffset":456,"byteLength":152,"target":34962},{"buffer":0,"byteOffset":608,"byteLength":102,"target":34963},{"buffer":0,"byteOffset":712,"byteLength":456,"target":34962},{"buffer":0,"byteOffset":1168,"byteLength":456,"target":34962},{"buffer":0,"byteOffset":1624,"byteLength":330,"target":34963}],"accessors":[{"bufferView":0,"componentType":5126,"count":19,"type":"VEC3","min":[-0.5654687285423279,-1.6670324802398682,0.05999999865889549],"max":[0.5581250190734863,1.674375057220459,0.05999999865889549]},{"bufferView":1,"componentType":5126,"count":19,"type":"VEC3","min":[0.0,0.0,1.0],"max":[0.0,0.0,1.0]},{"bufferView":2,"componentType":5126,"count":19,"type":"VEC2","min":[0.08645833283662796,0.6756943464279175],"max":[0.24583333730697632,0.9916666746139526]},{"bufferView":3,"componentType":5123,"count":51,"type":"SCALAR","min":[0],"max":[18]},{"bufferView":4,"componentType":5126,"count":38,"type":"VEC3","min":[-0.5654687285423279,-1.6670324802398682,-0.05999999865889549],"max":[0.5581250190734863,1.674375057220459,0.05999999865889549]},{"bufferView":5,"componentType":5126,"count":38,"type":"VEC3","min":[-0.9979581236839294,-0.9990887641906738,-0.9827001094818115],"max":[0.9969469308853149,0.9992591738700867,0.0]},{"bufferView":6,"componentType":5123,"count":165,"type":"SCALAR","min":[0],"max":[37]}]}